<?xml version="1.0" encoding="utf-8"?>
<!-- Generator: Adobe Illustrator 16.2.0, SVG Export Plug-In . SVG Version: 6.00 Build 0)  -->
<!DOCTYPE svg PUBLIC "-//W3C//DTD SVG 1.1//EN" "http://www.w3.org/Graphics/SVG/1.1/DTD/svg11.dtd">
<svg version="1.1" id="Слой_1" xmlns="http://www.w3.org/2000/svg" xmlns:xlink="http://www.w3.org/1999/xlink" x="0px" y="0px"
	 width="324.0102539px" height="329.7578125px" viewBox="0 0 324.0102539 329.7578125"
	 enable-background="new 0 0 324.0102539 329.7578125" xml:space="preserve">
<line fill="none" stroke="#000000" stroke-width="3" stroke-miterlimit="10" x1="1859.5" y1="-593.2167969" x2="1859.5" y2="-338.2167969"/>
<line fill="none" stroke="#000000" stroke-width="3" stroke-miterlimit="10" x1="1606" y1="-339.7167969" x2="1861" y2="-339.7167969"/>
<line fill="none" stroke="#000000" stroke-width="3" stroke-miterlimit="10" x1="1858.8095703" y1="-340.1347656" x2="2019.1962891" y2="-180.2226563"/>
<text transform="matrix(1 0 0 1 1791.1557617 -256.909668)" font-family="'LucidaBright'" font-size="237">S</text>
<text transform="matrix(1 0 0 1 1173.6557617 -256.9077148)" font-family="'LucidaBright'" font-size="237">S</text>
<text transform="matrix(1 0 0 1 969.7617188 -1180.7978516)" font-family="'IgnisetGlaciesExtraSharp'" font-size="294.6997375">S</text>
<g>
	<text transform="matrix(0.82524 0 0 1 1877.2558594 -519.5214844)" font-family="'BankGothicBT-Light'" font-size="60">it</text>
</g>
<text transform="matrix(1 0 0 1 2001.1464844 -220.3925781)" font-family="'BankGothicBT-Light'" font-size="60">studio</text>
<text transform="matrix(1 0 0 1 1469.5585938 -1161.3339844)" font-family="'Astrobia'" font-size="262.6281433">S</text>
<text transform="matrix(1 0 0 1 1675.1103516 -1191.7646484)" font-family="'EarthNormal'" font-size="219.582489">S</text>
<text transform="matrix(1 0 0 1 1183.0219727 -1312.0361328)" font-family="'OneStrokeScriptLetPlain'" font-size="275.0559692">S</text>
<text transform="matrix(1 0 0 1 1288.0117188 -1182.8554688)" font-family="'OneStrokeScriptLetPlain'" font-size="153.4392853">IT</text>
<circle fill="none" stroke="#000000" stroke-miterlimit="10" cx="1859.581543" cy="-340.6230469" r="152.4926758"/>
<line fill="none" stroke="#000000" stroke-width="3" stroke-miterlimit="10" x1="253.5" y1="114.7832031" x2="253.5" y2="257.7832031"/>
<line fill="none" stroke="#000000" stroke-width="3" stroke-miterlimit="10" x1="0" y1="256.2832031" x2="255" y2="256.2832031"/>
<line fill="none" stroke="#000000" stroke-width="3" stroke-miterlimit="10" x1="253.8095703" y1="255.8652344" x2="322.9511719" y2="324.8027344"/>
<g>
	<path d="M81.9267578,219.6191406v-32.9814453h12.1508789l0.1157227,2.0830078
		c0.2314453,3.8583984,0.347168,6.7519531,0.347168,8.6796875c0,6.0947266,2.5063477,10.6855469,7.5219727,13.7705078
		c8.1767578,5.0917969,17.203125,7.6376953,27.0791016,7.6376953c10.2597656,0,18.2841797-2.9111328,24.0703125-8.7363281
		c5.7851563-5.8242188,8.6796875-13.8671875,8.6796875-24.1289063c0-8.6396484-1.8515625-15.5068359-5.5546875-20.5986328
		s-10.9179688-10.6464844-21.640625-16.6640625l-12.1508789-6.9433594
		C96.3144531,126.9248047,83.199707,110.7636719,83.199707,93.25c0-13.1933594,4.7246094-24.109375,14.1757813-32.75
		c9.449707-8.6396484,21.3115234-12.9609375,35.5849609-12.9609375c6.1713867,0,12.8632813,0.5986328,20.0776367,1.7929688
		c7.2128906,1.1972656,14.9472656,3.0292969,23.203125,5.4980469v30.4345703h-12.8457031l-0.0917969-1.9677734
		c-0.2480469-4.1660156-0.3710938-7.2128906-0.3710938-9.1416016c0-6.4804688-2.3203125-11.2431641-6.9570313-14.2919922
		c-4.640625-3.046875-11.9077148-4.5703125-21.8017578-4.5703125c-8.2724609,0-14.9790039,2.71875-20.1196289,8.1582031
		s-7.7099609,12.5957031-7.7099609,21.4667969c0,7.5605469,1.7739258,13.8105469,5.3232422,18.7460938
		c3.5478516,4.9384766,9.9521484,10.0302734,19.2099609,15.2753906l12.1508789,6.9433594
		c16.8183594,9.5673828,28.1582031,17.8994141,34.0214844,24.9960938
		c5.8632813,7.0996094,8.7949219,16.0097656,8.7949219,26.7324219c0,14.2734375-5.3046875,26.1347656-15.9101563,35.5839844
		c-10.609375,9.4521484-23.859375,14.1767578-39.7514648,14.1767578c-9.2578125,0-17.9189453-0.65625-25.9794922-1.9677734
		C96.140625,224.0917969,88.7148438,222.1640625,81.9267578,219.6191406z"/>
</g>
<g>
	<g>
		<path d="M211.9638672,45.4804688h-3.9414063V20.109375h3.9414063V45.4804688z"/>
		<path d="M231.6679688,23.8300781v21.6503906h-3.9404297V23.8300781h-9.9130859v-3.7792969h23.8144531v3.7792969H231.6679688z"/>
	</g>
</g>
<g>
	<path d="M53.4765625,293.9570313H35.6347656v6.5917969H51.953125c2.3828125,0,4.0087891,0.4150391,4.8779297,1.2451172
		s1.3037109,2.4169922,1.3037109,4.7607422v3.046875c0,2.34375-0.4248047,3.9306641-1.2744141,4.7607422
		s-2.4853516,1.2451172-4.9072266,1.2451172h-15.46875c-2.421875,0-4.0678711-0.4150391-4.9365234-1.2451172
		c-0.8691406-0.8300781-1.3037109-2.4169922-1.3037109-4.7607422v-0.703125l4.3945313-0.9082031v3.7792969H53.828125v-7.1484375
		H37.4511719c-2.4023438,0-4.0332031-0.4150391-4.8925781-1.2451172c-0.8598633-0.8300781-1.2890625-2.4169922-1.2890625-4.7607422
		v-2.4023438c0-2.3242188,0.4291992-3.9111328,1.2890625-4.7607422c0.859375-0.8496094,2.4902344-1.2744141,4.8925781-1.2744141
		h14.1503906c2.3632813,0,3.9941406,0.4101563,4.8925781,1.2304688s1.3476563,2.265625,1.3476563,4.3359375v0.6152344
		l-4.3652344,0.9375V293.9570313z"/>
	<path d="M81.484375,293.9570313v21.6503906h-4.7753906v-21.6503906H64.6972656v-3.7792969h28.8574219v3.7792969H81.484375z"/>
	<path d="M105.5664063,290.1777344v21.5917969h18.5742188v-21.5917969h4.8632813v19.4238281
		c0,2.34375-0.4345703,3.9306641-1.3037109,4.7607422s-2.5146484,1.2451172-4.9365234,1.2451172h-15.7617188
		c-2.421875,0-4.0673828-0.4199219-4.9365234-1.2597656s-1.3037109-2.421875-1.3037109-4.7460938v-19.4238281H105.5664063z"/>
	<path d="M157.3925781,290.1777344c2.421875,0,4.4580078,0.1611328,6.1083984,0.4833984s3.0126953,0.8154297,4.0869141,1.4794922
		c1.7382813,1.09375,3.0957031,2.5830078,4.0722656,4.4677734s1.4648438,3.9599609,1.4648438,6.2255859
		c0,4.2773438-1.2988281,7.4755859-3.8964844,9.5947266s-6.5429688,3.1787109-11.8359375,3.1787109h-14.6484375v-25.4296875
		H157.3925781z M156.8652344,293.9570313h-9.3164063v17.8125h9.3164063c4.140625,0,7.0849609-0.6982422,8.8330078-2.0947266
		s2.6220703-3.6962891,2.6220703-6.8994141c0-3.125-0.8837891-5.3759766-2.6513672-6.7529297
		S160.9667969,293.9570313,156.8652344,293.9570313z"/>
	<path d="M189.1796875,315.6074219h-4.7753906v-25.3710938h4.7753906V315.6074219z"/>
	<path d="M200.2246094,296.2128906c0-2.3242188,0.4394531-3.9111328,1.3183594-4.7607422s2.5195313-1.2744141,4.921875-1.2744141
		h18.3691406c2.4023438,0,4.0429688,0.4248047,4.921875,1.2744141s1.3183594,2.4365234,1.3183594,4.7607422v13.3886719
		c0,2.3242188-0.4345703,3.90625-1.3037109,4.7460938s-2.5146484,1.2597656-4.9365234,1.2597656h-18.3691406
		c-2.4414063,0-4.0917969-0.4150391-4.9511719-1.2451172s-1.2890625-2.4169922-1.2890625-4.7607422V296.2128906z
		 M205.0292969,311.7695313h21.2402344v-17.8125h-21.2402344V311.7695313z"/>
</g>
<line fill="none" stroke="#000000" stroke-width="3" stroke-miterlimit="10" x1="1235.5" y1="-555.2167969" x2="1235.5" y2="-300.2167969"/>
<line fill="none" stroke="#000000" stroke-width="3" stroke-miterlimit="10" x1="1235.6640625" y1="-301.1943359" x2="1444.3417969" y2="-213.1630859"/>
<line fill="none" stroke="#000000" stroke-width="3" stroke-miterlimit="10" x1="1235.515625" y1="-301.4179688" x2="1042.4902344" y2="-182.9394531"/>
<text transform="matrix(1 0 0 1 2090.1557617 254.0898438)" display="none" font-family="'LucidaBright'" font-size="236.6867065">S</text>
<g>
	<text transform="matrix(0.82524 0 0 1 1300.2529297 -397.0195313)" font-family="'BankGothicBT-Light'" font-size="60">it</text>
</g>
<text transform="matrix(1 0 0 1 1136.1464844 -185.3896484)" font-family="'BankGothicBT-Light'" font-size="60">studio</text>
<text transform="matrix(1 0 0 1 123.6645508 -255.3891602)" font-family="'LucidaBright'" font-size="237">S</text>
<line fill="none" stroke="#000000" stroke-width="3" stroke-miterlimit="10" x1="185.5" y1="-551.2167969" x2="185.5" y2="-296.2167969"/>
<line fill="none" stroke="#000000" stroke-width="3" stroke-miterlimit="10" x1="185.6640625" y1="-297.1943359" x2="394.3417969" y2="-209.1630859"/>
<line fill="none" stroke="#000000" stroke-width="3" stroke-miterlimit="10" x1="185.515625" y1="-297.4179688" x2="-7.5097656" y2="-178.9394531"/>
<line fill="none" stroke="#000000" stroke-width="3" stroke-miterlimit="10" x1="185.5039063" y1="-411.5727539" x2="304.7001953" y2="-246.8388672"/>
<line fill="none" stroke="#000000" stroke-width="3" stroke-miterlimit="10" x1="185.3212891" y1="-326.2456055" x2="156.1132813" y2="-279.4467773"/>
<g>
	<text transform="matrix(0.82524 0 0 1 225.4179688 -446.0195313)" font-family="'BankGothicBT-Light'" font-size="50">it</text>
</g>
<text transform="matrix(1 0 0 1 83.1464844 -185.3896484)" font-family="'BankGothicBT-Light'" font-size="60">studio</text>
<text transform="matrix(1 0 0 1 652.6645508 -257.3891602)" font-family="'LucidaBright'" font-size="237">S</text>
<line fill="none" stroke="#000000" stroke-width="3" stroke-miterlimit="10" x1="714.5" y1="-553.2167969" x2="714.5" y2="-298.2167969"/>
<line fill="none" stroke="#000000" stroke-width="3" stroke-miterlimit="10" x1="714.6640625" y1="-299.1943359" x2="923.3417969" y2="-211.1630859"/>
<line fill="none" stroke="#000000" stroke-width="3" stroke-miterlimit="10" x1="631.5332031" y1="-248.8808594" x2="716.1455078" y2="-213.9384766"/>
<line fill="none" stroke="#000000" stroke-width="3" stroke-miterlimit="10" x1="714.515625" y1="-299.4179688" x2="521.4902344" y2="-180.9394531"/>
<line fill="none" stroke="#000000" stroke-width="3" stroke-miterlimit="10" x1="795.6113281" y1="-264.8603516" x2="714.9335938" y2="-213.6962891"/>
<g>
	<text transform="matrix(0.82524 0 0 1 755.4179688 -364.0195313)" font-family="'BankGothicBT-Light'" font-size="50">it</text>
</g>
<text transform="matrix(1 0 0 1 613.1464844 -166.3896484)" font-family="'BankGothicBT-Light'" font-size="60">studio</text>
<line fill="none" stroke="#000000" stroke-width="3" stroke-miterlimit="10" x1="652.5" y1="111.7832031" x2="652.5" y2="254.7832031"/>
<line fill="none" stroke="#000000" stroke-width="3" stroke-miterlimit="10" x1="399" y1="253.2832031" x2="654" y2="253.2832031"/>
<line fill="none" stroke="#000000" stroke-width="3" stroke-miterlimit="10" x1="652.8095703" y1="252.8652344" x2="721.9511719" y2="321.8027344"/>
<line fill="none" stroke="#000000" stroke-width="3" stroke-miterlimit="10" x1="652.4882813" y1="202.1220703" x2="693.9765625" y2="293.8896484"/>
<text transform="matrix(1 0 0 1 467.1557617 220.0898438)" font-family="'LucidaBright'" font-size="237">S</text>
<g>
	<text transform="matrix(0.82524 0 0 1 602.2597656 42.4804688)" font-family="'BankGothicBT-Light'" font-size="60">it</text>
</g>
<text transform="matrix(1 0 0 1 424.1464844 312.6074219)" font-family="'BankGothicBT-Light'" font-size="60">studio</text>
<line fill="none" stroke="#000000" stroke-width="3" stroke-miterlimit="10" x1="1138.5" y1="111.7832031" x2="1138.5" y2="254.7832031"/>
<line fill="none" stroke="#000000" stroke-width="3" stroke-miterlimit="10" x1="885" y1="253.2832031" x2="1140" y2="253.2832031"/>
<line fill="none" stroke="#000000" stroke-width="3" stroke-miterlimit="10" x1="1138.8095703" y1="252.8652344" x2="1207.9511719" y2="321.8027344"/>
<path fill="none" stroke="#000000" stroke-width="3" stroke-miterlimit="10" d="M1179.9765625,293.8896484"/>
<path fill="none" stroke="#000000" stroke-width="3" stroke-miterlimit="10" d="M1138.4882813,202.1220703"/>
<text transform="matrix(1 0 0 1 948.1557617 220.0898438)" font-family="'Industry-Light'" font-size="237">S</text>
<g>
	<text transform="matrix(0.82524 0 0 1 1083.2597656 42.4804688)" font-family="'BankGothicBT-Light'" font-size="50">it</text>
</g>
<text transform="matrix(1 0 0 1 934.1464844 304.6074219)" font-family="'BankGothicBT-Light'" font-size="50">studio</text>
</svg>
