<svg width="78" height="78" viewBox="0 0 78 78" fill="none" xmlns="http://www.w3.org/2000/svg">
<path d="M35.0715 52.3467C41.1959 52.3467 46.9737 49.9779 51.307 45.6445C55.6403 41.3112 58.0092 35.5334 58.0092 29.409C58.0092 23.2845 55.6403 17.5067 51.307 13.1734C46.9737 8.84008 41.1959 6.47119 35.0715 6.47119C28.947 6.47119 23.1692 8.84008 18.8359 13.1734C9.88034 22.129 9.88034 36.689 18.8359 45.6445C23.1692 49.9779 28.8892 52.3467 35.0715 52.3467ZM35.0715 13.1734C39.4048 13.1734 43.507 14.849 46.5692 17.9112C52.9248 24.2667 52.9248 34.5512 46.5692 40.9067C43.507 43.969 39.4048 45.6445 35.0715 45.6445C30.7381 45.6445 26.6359 43.969 23.5737 40.9067C20.5115 37.8445 18.8359 33.7423 18.8359 29.409C18.8359 25.0756 20.5115 20.9734 23.5737 17.9112C26.6359 14.849 30.6803 13.1734 35.0715 13.1734ZM45.2981 32.4712V26.289H38.1337V19.1823H31.9515V26.3467H24.787V32.529H31.9515V39.6934H38.1337V32.4712H45.2981ZM74.0137 62.0534L56.7959 44.8356C55.9292 46.049 54.947 47.2045 53.907 48.2445C52.867 49.2845 51.7115 50.2668 50.4981 51.1334L67.7159 68.3512L74.0137 62.0534Z" fill="white" fill-opacity="0.71"/>
</svg>
