<?xml version="1.0" encoding="utf-8"?>
<!-- Generator: Adobe Illustrator 16.2.0, SVG Export Plug-In . SVG Version: 6.00 Build 0)  -->
<!DOCTYPE svg PUBLIC "-//W3C//DTD SVG 1.1//EN" "http://www.w3.org/Graphics/SVG/1.1/DTD/svg11.dtd">
<svg version="1.1" id="Слой_1" xmlns="http://www.w3.org/2000/svg" xmlns:xlink="http://www.w3.org/1999/xlink" x="0px" y="0px"
	 width="25px" height="25px" viewBox="0 0 25 25" enable-background="new 0 0 25 25" xml:space="preserve">
<path fill="#FFFFFF" d="M12.5,22.58c5.566,0,10.08-4.514,10.08-10.08c0-5.567-4.514-10.08-10.08-10.08
	C6.933,2.42,2.42,6.933,2.42,12.5C2.42,18.066,6.933,22.58,12.5,22.58z M24.5,12.5c0,6.628-5.372,12-12,12c-6.627,0-12-5.372-12-12
	c0-6.627,5.373-12,12-12C19.128,0.5,24.5,5.873,24.5,12.5z M7.045,11.589c0,1.4,0.527,2.647,1.658,3.112
	c0.185,0.075,0.351,0.002,0.405-0.204c0.038-0.143,0.126-0.504,0.165-0.654c0.055-0.205,0.033-0.276-0.117-0.454
	c-0.325-0.386-0.534-0.887-0.534-1.598c0-2.058,1.53-3.901,3.985-3.901c2.174,0,3.368,1.337,3.368,3.122
	c0,2.349-1.033,4.331-2.566,4.331c-0.847,0-1.48-0.705-1.278-1.568c0.244-1.033,0.714-2.146,0.714-2.891
	c0-0.667-0.355-1.223-1.091-1.223c-0.866,0-1.562,0.901-1.562,2.107c0,0.77,0.258,1.289,0.258,1.289s-0.886,3.778-1.041,4.44
	c-0.309,1.318-0.046,2.933-0.024,3.096c0.013,0.096,0.136,0.12,0.192,0.047c0.08-0.105,1.11-1.387,1.461-2.667
	c0.099-0.361,0.569-2.238,0.569-2.238c0.282,0.54,1.104,1.015,1.978,1.015c2.603,0,4.366-2.387,4.366-5.583
	c0-2.416-2.033-4.667-5.124-4.667C8.985,6.5,7.045,9.274,7.045,11.589z"/>
</svg>
